<svg viewBox="0 0 32 32" xmlns="http://www.w3.org/2000/svg"><g data-name="Eye Disable"><path d="M29.93 15.54C28 10.35 22.49 7 16 7S4 10.35 2.07 15.54a.92.92 0 0 0-.07.36v.1a.92.92 0 0 0 .07.36c2 5.22 7.48 8.59 14 8.59S28 21.62 29.93 16.46a.92.92 0 0 0 .07-.36v-.2a.92.92 0 0 0-.07-.36Z" fill="#d8e1ef" class="fill-d8e1ef"></path><circle cx="16" cy="16" r="6" fill="#0593ff" class="fill-0593ff"></circle><path d="M7 26a1 1 0 0 1-.71-.29 1 1 0 0 1 0-1.42l18-18a1 1 0 1 1 1.42 1.42l-18 18A1 1 0 0 1 7 26Z" fill="#e00d0d" class="fill-0e6ae0"></path></g></svg>