<svg viewBox="0 0 32 32" xml:space="preserve" xmlns="http://www.w3.org/2000/svg"><g fill="none" stroke="#FFFFFF" stroke-linecap="round" stroke-linejoin="round" stroke-miterlimit="10" stroke-width="2" class="stroke-ffffff"></g><path d="M15.293 25.707A1 1 0 0 0 17 25V3a1 1 0 0 0-2 0v19.586l-7.293-7.293a.999.999 0 1 0-1.414 1.414l9 9zM20 22a.997.997 0 0 0 .707-.293l5-5a.999.999 0 1 0-1.414-1.413l-5 5A.999.999 0 0 0 20 22z" fill="#ff6f91" class="fill-000000"></path><path d="M29 21a1 1 0 0 0-1 1v6H4v-6a1 1 0 1 0-2 0v7a1 1 0 0 0 1 1h26a1 1 0 0 0 1-1v-7a1 1 0 0 0-1-1z" fill="#ff6f91" class="fill-000000"></path></svg>